<svg w="15" h="28" viewBox="0 0 15 28" fill="none" xmlns="http://www.w3.org/2000/svg">
  <path fill-rule="evenodd" clip-rule="evenodd" d="M5.11506 13.8545C4.54672 12.0358 3.41004 10.1035 1.57447e-06 9.08046C5.45606 8.39845 5.11506 13.8545 5.11506 13.8545ZM7.26148 11.2531C6.69314 9.43442 5.55646 7.50207 2.14642 6.47906C7.60248 5.79705 7.26148 11.2531 7.26148 11.2531ZM4.50001 27C4.50001 27 8.53354 27.0607 10 27C6.75021 22.2336 9.27742 18.2686 11.5527 14.6989C12.8586 12.65 14.0815 10.7313 14.0815 8.86609C14.0815 3.75104 5.55645 3.6326e-06 5.55645 3.6326e-06C5.55645 3.6326e-06 12.0306 3.84847 12.0306 8.46663C12.0306 10.9221 10.3507 13.3279 8.60473 15.8282C7.12015 17.9543 5.58784 20.1487 5.00001 22.5C3.72087 27.6166 4.50001 27 4.50001 27ZM9.64849 8.86609C9.08015 7.0474 7.94347 5.11505 4.53344 4.09204C9.98949 3.41003 9.64849 8.86609 9.64849 8.86609Z" fill="white" />
</svg>